<?xml version="1.0" encoding="utf-8"?>
<!-- Generator: Adobe Illustrator 21.1.0, SVG Export Plug-In . SVG Version: 6.00 Build 0)  -->
<svg version="1.1" id="Camada_1" xmlns="http://www.w3.org/2000/svg" xmlns:xlink="http://www.w3.org/1999/xlink" x="0px" y="0px"
	 viewBox="0 0 26 120" style="enable-background:new 0 0 26 120;" xml:space="preserve">
<style type="text/css">
	.st0{fill:none;stroke:#000000;stroke-linecap:round;stroke-linejoin:round;}
</style>
<title>Prancheta 3</title>
<g>
	<line class="st0" x1="8.5" y1="27.1" x2="17.8" y2="27.1"/>
	<path class="st0" d="M19.9,27.1h1.6c0.4,0,0.8,0.3,0.8,0.8l0,0v13.8c0,0.4-0.3,0.8-0.8,0.8H4.5c-0.4,0-0.8-0.2-0.8-0.6V27.7
		c0-0.4,0.4-0.6,0.8-0.6h1.6"/>
	<line class="st0" x1="3.8" y1="30.7" x2="22.3" y2="30.7"/>
	<line class="st0" x1="7.3" y1="25.6" x2="7.3" y2="28.3"/>
	<line class="st0" x1="19" y1="25.6" x2="19" y2="28.3"/>
</g>
<g>
	<polyline class="st0" points="14.8,71.3 16.5,75.1 17.8,71.8 21.1,73 19.3,69.3 	"/>
	<ellipse transform="matrix(0.4198 -0.9076 0.9076 0.4198 -48.2016 47.4356)" class="st0" cx="13" cy="61.4" rx="8.3" ry="8.3"/>
	<polyline class="st0" points="6.6,69.2 4.9,73 8.2,71.8 9.4,75.1 11.2,71.3 	"/>
</g>
<g>
	<path class="st0" d="M12.3,1.1l-9,9c-0.4,0.4-0.4,1,0,1.4c0.2,0.2,0.4,0.3,0.7,0.3l0,0c0.6,0,1,0.4,1,1l0,0v9.4c0,0.6,0.4,1,1,1
		h2.6c0.6,0,1-0.4,1-1v-4.1c0-0.6,0.4-1,1-1h4.1c0.6,0,1,0.4,1,1v4.1c0,0.6,0.4,1,1,1h2.6c0.6,0,1-0.4,1-1v-9.4c0-0.6,0.4-1,1-1H22
		c0.6,0,1-0.4,1-1c0-0.3-0.1-0.5-0.3-0.7l-9-9C13.3,0.7,12.7,0.7,12.3,1.1z"/>
</g>
<g>
	<path class="st0" d="M24.5,94.2c0.1-0.7-0.3-1.3-1-1.5s-1.3,0.3-1.5,1c-0.1,0.7,0.3,1.3,1,1.5c0.2,0,0.3,0,0.5,0
		C24,95.1,24.4,94.7,24.5,94.2z"/>
	<path class="st0" d="M10.3,81.7c0.1-0.7-0.3-1.3-1-1.5s-1.3,0.3-1.5,1c-0.1,0.7,0.3,1.3,1,1.5c0.2,0,0.3,0,0.5,0
		C9.8,82.6,10.2,82.2,10.3,81.7z"/>
	<path class="st0" d="M17.8,100.9c0.1-0.7-0.3-1.3-1-1.5s-1.3,0.3-1.5,1c-0.1,0.7,0.3,1.3,1,1.5c0.2,0,0.3,0,0.5,0
		C17.3,101.8,17.7,101.4,17.8,100.9z"/>
	<path class="st0" d="M4,92.9c0.1-0.7-0.3-1.3-1-1.5c-0.7-0.1-1.3,0.3-1.5,1s0.3,1.3,1,1.5c0.2,0,0.3,0,0.5,0
		C3.5,93.8,3.9,93.4,4,92.9z"/>
	<line class="st0" x1="3.2" y1="91.4" x2="8.2" y2="82.2"/>
	<line class="st0" x1="17.8" y1="99.8" x2="22.4" y2="94.8"/>
	<line class="st0" x1="9.9" y1="82.2" x2="15.7" y2="99.4"/>
</g>
</svg>
