<?xml version="1.0" encoding="utf-8"?>
<!-- Generator: Adobe Illustrator 19.1.0, SVG Export Plug-In . SVG Version: 6.00 Build 0)  -->
<svg version="1.1" id="Camada_1" xmlns="http://www.w3.org/2000/svg" xmlns:xlink="http://www.w3.org/1999/xlink" x="0px" y="0px"
	 viewBox="-669 308.2 121.3 620.7" style="enable-background:new -669 308.2 121.3 620.7;" xml:space="preserve">
<style type="text/css">
	.st0{fill:none;stroke:#FFFFFF;stroke-linecap:round;stroke-linejoin:round;}
	.st1{fill:none;stroke:#928ABE;stroke-miterlimit:10;}
	.st2{fill:none;stroke:#FFFFFF;stroke-linecap:round;stroke-linejoin:round;stroke-miterlimit:10;}
	.st3{fill:none;stroke:#F0F0F7;stroke-miterlimit:10;}
	.st4{fill:none;stroke:#4D4C4C;stroke-miterlimit:10;}
	.st5{fill:none;stroke:#6453A2;stroke-width:2;stroke-linecap:round;stroke-miterlimit:10;}
	.st6{fill:none;stroke:#4D4C4C;stroke-linecap:round;stroke-miterlimit:10;}
</style>
<title>Prancheta 3</title>
<g>
	<line class="st0" x1="-660.5" y1="340.3" x2="-651.2" y2="340.3"/>
	<path class="st0" d="M-649.1,340.3h1.6c0.4,0,0.8,0.3,0.8,0.8l0,0v13.9c0,0.4-0.3,0.8-0.8,0.8h-17.1c-0.4,0-0.8-0.2-0.8-0.6v-14.3
		c0-0.4,0.4-0.6,0.8-0.6h1.6"/>
	<line class="st0" x1="-665.3" y1="343.9" x2="-646.6" y2="343.9"/>
	<line class="st0" x1="-661.7" y1="338.8" x2="-661.7" y2="341.5"/>
	<line class="st0" x1="-650" y1="338.8" x2="-650" y2="341.5"/>
</g>
<g>
	<polyline class="st0" points="-654.4,383 -652.7,386.8 -651.4,383.5 -648.1,384.7 -649.9,381 	"/>
	<ellipse class="st0" cx="-656.2" cy="373.1" rx="8.3" ry="8.3"/>
	<polyline class="st0" points="-662.6,380.9 -664.3,384.7 -661,383.5 -659.8,386.8 -658,383 	"/>
</g>
<g>
	<path class="st0" d="M-656.7,309.3l-9,9c-0.4,0.4-0.4,1,0,1.4c0.2,0.2,0.4,0.3,0.7,0.3l0,0c0.6,0,1,0.4,1,1l0,0v9.4
		c0,0.6,0.4,1,1,1h2.6c0.6,0,1-0.4,1-1v-4.1c0-0.6,0.4-1,1-1h4.1c0.6,0,1,0.4,1,1v4.1c0,0.6,0.4,1,1,1h2.6c0.6,0,1-0.4,1-1V321
		c0-0.6,0.4-1,1-1h0.7c0.6,0,1-0.4,1-1c0-0.3-0.1-0.5-0.3-0.7l-9-9C-655.7,308.9-656.3,308.9-656.7,309.3z"/>
</g>
<g>
	<path class="st0" d="M-644.9,407.3c0.1-0.7-0.3-1.3-1-1.4c-0.7-0.2-1.3,0.3-1.4,1c-0.1,0.7,0.3,1.3,1,1.4c0.2,0,0.3,0,0.5,0
		C-645.4,408.2-645,407.8-644.9,407.3z"/>
	<path class="st0" d="M-658.6,395.2c0.1-0.7-0.3-1.3-1-1.4c-0.7-0.2-1.3,0.3-1.4,1c-0.1,0.7,0.3,1.3,1,1.4c0.2,0,0.3,0,0.5,0
		C-659.1,396.1-658.7,395.7-658.6,395.2z"/>
	<path class="st0" d="M-651.4,413.8c0.1-0.7-0.3-1.3-1-1.4c-0.7-0.2-1.3,0.3-1.4,1c-0.1,0.7,0.3,1.3,1,1.4c0.2,0,0.3,0,0.5,0
		C-651.8,414.6-651.5,414.2-651.4,413.8z"/>
	<path class="st0" d="M-664.7,406c0.1-0.7-0.3-1.3-1-1.4c-0.7-0.1-1.3,0.3-1.4,1c-0.2,0.7,0.3,1.3,1,1.4c0.2,0,0.3,0,0.5,0
		C-665.2,406.9-664.8,406.5-664.7,406z"/>
	<line class="st0" x1="-665.5" y1="404.6" x2="-660.6" y2="395.7"/>
	<line class="st0" x1="-651.4" y1="412.7" x2="-646.9" y2="407.9"/>
	<line class="st0" x1="-659" y1="395.7" x2="-653.4" y2="412.3"/>
</g>
<polyline class="st1" points="-650.2,456.2 -656.2,462.2 -662.2,456.2 "/>
<g>
	<path class="st1" d="M-648.7,434.9c0,0-0.1-0.6-0.5-0.9c0,0-2.8-1.6-2.8-6.8c0-3.8-4.3-3.7-4.3-3.7s-4.2,0-4.2,3.7
		c0,5.2-2.8,6.8-2.8,6.8c-0.4,0.3-0.5,0.9-0.5,0.9s0,0.8,0.6,0.8h13.6C-648.7,435.7-648.7,434.9-648.7,434.9z"/>
	<path class="st1" d="M-658.6,437.4c0.3,0.9,1.3,1.9,2.5,1.9s2.2-1,2.5-1.9"/>
</g>
<path class="st2" d="M-656.8,493.4l-4.9,3.6c-0.7,0.6-1.8-0.2-1.5-1.1l2-5.9c0.1-0.4,0-0.8-0.3-1.1l-4.4-3.4
	c-0.7-0.6-0.3-1.8,0.6-1.8h5c0.4,0,0.9-0.2,1-0.6l2-5.8c0.3-0.9,1.5-0.9,1.8,0l2,5.8c0.1,0.4,0.8,0.6,1.2,0.6h5
	c0.9,0,1.2,1.2,0.5,1.8l-4.4,3.4c-0.3,0.2-0.4,0.7-0.3,1.1l2,5.9c0.3,0.9-0.7,1.6-1.5,1.1l-4.9-3.6
	C-656,493.1-656.5,493.1-656.8,493.4z"/>
<g>
	<path class="st2" d="M-645.2,517.8c0.2-0.8-0.6-1.6-1.4-1.4c-0.5,0.1-0.9,0.5-0.9,0.9c-0.2,0.8,0.6,1.6,1.4,1.4
		C-645.7,518.7-645.3,518.3-645.2,517.8z"/>
	<path class="st2" d="M-658.8,505.9c0.2-0.8-0.6-1.6-1.4-1.4c-0.5,0.1-0.9,0.5-0.9,0.9c-0.2,0.8,0.6,1.6,1.4,1.4
		C-659.3,506.7-658.9,506.3-658.8,505.9z"/>
	<path class="st2" d="M-651.6,524.2c0.2-0.8-0.6-1.6-1.4-1.4c-0.5,0.1-0.9,0.5-0.9,0.9c-0.2,0.8,0.6,1.6,1.4,1.4
		C-652.1,525.1-651.7,524.7-651.6,524.2z"/>
	<path class="st2" d="M-664.8,516.6c0.2-0.8-0.6-1.6-1.4-1.4c-0.5,0.1-0.9,0.5-0.9,0.9c-0.2,0.8,0.6,1.6,1.4,1.4
		C-665.3,517.5-664.9,517.1-664.8,516.6z"/>
	<line class="st2" x1="-665.6" y1="515.2" x2="-660.8" y2="506.4"/>
	<line class="st2" x1="-651.6" y1="523.2" x2="-647.2" y2="518.4"/>
	<line class="st2" x1="-659.2" y1="506.4" x2="-653.6" y2="522.8"/>
</g>
<g>
	<path class="st3" d="M-665.9,546.1l-1.1-2.3c-0.3-0.5-0.2-0.6,0.1-0.8l4.8-2.3c0.3-0.2,0.6-0.4,0.8-0.6l4.7-6.1
		c0.6-0.7,1.7-1.7,2.2-0.6l2.8,5.7l2.8,5.7c0.6,1.1-0.9,1.4-1.8,1.4l-7.8-0.1c-0.3,0-0.6,0.1-0.9,0.2l-4.8,2.3
		c-0.2,0.1-0.5,0.1-0.7-0.4L-665.9,546.1z"/>
	<path class="st3" d="M-660.7,547.4l1.7,3.5c0.1,0.1,0,0.3-0.1,0.4l-2.2,1.1c-0.1,0.1-0.3,0-0.4-0.1l-1.7-3.5"/>
	<line class="st3" x1="-647.6" y1="540.2" x2="-645.2" y2="541.1"/>
	<line class="st3" x1="-649.9" y1="535.7" x2="-649" y2="533.2"/>
	<line class="st3" x1="-648.7" y1="538" x2="-645.6" y2="536.4"/>
</g>
<g>
	<g>
		<circle class="st2" cx="-660.7" cy="566.2" r="3.5"/>
		<path class="st2" d="M-654.6,579.1l0-2.9c-0.3-3.1-2.8-4.5-6-4.5c-3.2,0-5.7,1.4-6,4.5l0,3c0,0,0,0.5,0.4,0.5h11.2
			C-655.1,579.6-654.6,579.6-654.6,579.1z"/>
	</g>
	<g>
		<circle class="st2" cx="-650.9" cy="564.2" r="3"/>
		<path class="st2" d="M-652.2,576h6c0,0,0.5,0,0.5-0.5l0-2.5c-0.2-2.7-2.4-3.9-5.2-3.9c-1.8,0-3.3,0.5-4.3,1.6"/>
	</g>
</g>
<g>
	<polyline class="st4" points="-617,340.2 -614.3,346.2 -612.3,340.9 -607,342.9 -609.8,336.9 	"/>
	<circle class="st4" cx="-619.9" cy="324.4" r="13.2"/>
	<polyline class="st4" points="-630,336.9 -632.8,342.9 -627.5,340.9 -625.6,346.2 -622.8,340.2 	"/>
</g>
<g>
	<polyline class="st5" points="-572,340.2 -569.3,346.2 -567.3,340.9 -562,342.9 -564.8,336.9 	"/>
	<circle class="st5" cx="-574.9" cy="324.4" r="13.2"/>
	<polyline class="st5" points="-585,336.9 -587.8,342.9 -582.5,340.9 -580.6,346.2 -577.8,340.2 	"/>
</g>
<path class="st4" d="M-620.9,384.2l-8.6,6.4c-1.3,1-3.1-0.3-2.6-1.9l3.5-10.4c0.2-0.7,0-1.4-0.6-1.9l-7.7-6c-1.3-1-0.5-3.1,1.1-3.1
	h8.9c0.7,0,1.6-0.4,1.8-1l3.6-10.3c0.5-1.5,2.7-1.5,3.2,0l3.6,10.3c0.2,0.7,1.4,1,2.1,1h8.9c1.6,0,2.1,2.1,0.8,3.1l-7.7,6
	c-0.6,0.4-0.8,1.2-0.6,1.9l3.5,10.4c0.5,1.6-1.3,2.9-2.6,1.9l-8.6-6.4C-619.5,383.8-620.3,383.8-620.9,384.2z"/>
<path class="st5" d="M-575.9,384.2l-8.6,6.4c-1.3,1-3.1-0.3-2.6-1.9l3.5-10.4c0.2-0.7,0-1.4-0.6-1.9l-7.7-6c-1.3-1-0.5-3.1,1.1-3.1
	h8.9c0.7,0,1.6-0.4,1.8-1l3.6-10.3c0.5-1.5,2.7-1.5,3.2,0l3.6,10.3c0.2,0.7,1.4,1,2.1,1h8.9c1.6,0,2.1,2.1,0.8,3.1l-7.7,6
	c-0.6,0.4-0.8,1.2-0.6,1.9l3.5,10.4c0.5,1.6-1.3,2.9-2.6,1.9l-8.6-6.4C-574.5,383.8-575.3,383.8-575.9,384.2z"/>
<g>
	<g>
		<path class="st4" d="M-629.4,413.9c0,6.1,9.5,11.6,9.5,11.6s9.5-5.5,9.5-11.6c0-2.5-1.8-4.9-4.6-4.9c-2.5,0-4.9,1.7-4.9,4.3
			c0-2.5-2.4-4.3-4.9-4.3C-627.6,409-629.4,411.4-629.4,413.9z"/>
		<path class="st4" d="M-612.5,414.2c0-1.6-1.1-3.1-2.9-3.1"/>
	</g>
	<g>
		<polyline class="st4" points="-599.9,426.7 -602.3,421.9 -607.2,423.7 		"/>
		<polyline class="st4" points="-639.9,407.4 -637.8,411.7 -633.4,410.5 		"/>
		<path class="st4" d="M-637.8,411.7c2.3-7.7,9.3-13.2,17.6-13.2c8.2,0,15.2,5.5,17.5,13.2"/>
		<path class="st4" d="M-602.4,421.9c-2,8.2-9.2,14.2-17.8,14.2c-8.5,0-15.7-6-17.8-14"/>
	</g>
</g>
<g>
	<g>
		<path class="st5" d="M-583.9,414.1c0,5.8,9,11,9,11s9-5.2,9-11c0-2.4-1.7-4.6-4.4-4.6c-2.4,0-4.7,1.7-4.7,4.1
			c0-2.4-2.2-4.1-4.7-4.1C-582.2,409.5-583.9,411.7-583.9,414.1z"/>
		<path class="st5" d="M-568.3,414.4c0-1.2-0.9-2.4-2.2-2.4"/>
	</g>
	<g>
		<polyline class="st5" points="-555.9,426.2 -558.2,421.7 -562.8,423.4 		"/>
		<polyline class="st5" points="-593.9,407.9 -591.9,412 -587.7,410.8 		"/>
		<path class="st5" d="M-591.9,412c2.2-7.3,8.8-12.5,16.7-12.5c7.8,0,14.5,5.3,16.7,12.5"/>
		<path class="st5" d="M-558.3,421.6c-1.9,7.7-8.8,13.5-16.9,13.5c-8.1,0-14.9-5.7-16.9-13.3"/>
	</g>
</g>
<g>
	<path class="st4" d="M-611.5,475.4v2.6c0,1-1.4,1.8-2.4,1.8h-23.2c-1,0-1.8-0.8-1.8-1.8v-25.6c0-0.5,0.4-1,0.7-1.3l7.1-7.1
		c0.3-0.3,0.9-0.8,1.4-0.8h16.5c1,0,1.8,0.8,1.8,1.8v3.5"/>
	<g>
		<path class="st4" d="M-622,457.8c0,6.8,10.6,13,10.6,13s10.6-6.1,10.6-13c0-2.8-2-5.5-5.1-5.5c-2.8,0-5.5,2-5.5,4.8
			c0-2.8-2.6-4.8-5.5-4.8C-620,452.4-622,455-622,457.8z"/>
		<path class="st4" d="M-603.1,458.2c0-1.8-1.3-3.4-3.2-3.4"/>
	</g>
	<g>
		<line class="st4" x1="-633" y1="464.5" x2="-626" y2="464.5"/>
		<line class="st4" x1="-633" y1="470.5" x2="-620" y2="470.5"/>
		<line class="st4" x1="-633" y1="458.5" x2="-628" y2="458.5"/>
	</g>
	<path class="st4" d="M-638.9,452.2h6.8c1.1,0,2-0.9,2-2v-6.8"/>
</g>
<g>
	<path class="st5" d="M-566.5,475.4v2.6c0,1-1.4,1.8-2.4,1.8h-23.2c-1,0-1.8-0.8-1.8-1.8v-25.6c0-0.5,0.4-1,0.7-1.3l7.1-7.1
		c0.3-0.3,0.9-0.8,1.4-0.8h16.5c1,0,1.8,0.8,1.8,1.8v3.5"/>
	<g>
		<path class="st5" d="M-577,457.8c0,6.8,10.6,13,10.6,13s10.6-6.1,10.6-13c0-2.8-2-5.5-5.1-5.5c-2.8,0-5.5,2-5.5,4.8
			c0-2.8-2.6-4.8-5.5-4.8C-575,452.4-577,455-577,457.8z"/>
		<path class="st5" d="M-558.8,458.2c0-1.4-1-2.7-2.6-2.7"/>
	</g>
	<g>
		<line class="st5" x1="-588" y1="465" x2="-581" y2="465"/>
		<line class="st5" x1="-588" y1="471" x2="-575" y2="471"/>
		<line class="st5" x1="-588" y1="459" x2="-583" y2="459"/>
	</g>
	<path class="st5" d="M-592.9,453.2h6.8c1.1,0,2-0.9,2-2v-6.8"/>
</g>
<g>
	<path class="st6" d="M-636.7,512l-1.9-3.9c-0.4-0.9-0.4-1.1,0.2-1.4l8.3-4.1c0.5-0.3,1-0.6,1.3-1l8.1-10.6c1-1.3,2.9-3,3.9-1
		l4.8,9.9l4.8,9.9c1,2-1.5,2.5-3.2,2.4l-13.4-0.2c-0.5,0-1.1,0.1-1.6,0.4l-8.3,4.1c-0.4,0.2-0.8,0.2-1.2-0.7L-636.7,512z"/>
	<path class="st6" d="M-627.7,514.2l2.9,6c0.1,0.2,0,0.5-0.2,0.6l-3.8,1.9c-0.2,0.1-0.5,0-0.6-0.2l-2.9-6"/>
	<line class="st6" x1="-605.1" y1="501.8" x2="-600.9" y2="503.2"/>
	<line class="st6" x1="-608.9" y1="493.9" x2="-607.5" y2="489.7"/>
	<line class="st6" x1="-607" y1="497.9" x2="-601.6" y2="495.2"/>
</g>
<g>
	<path class="st5" d="M-591.6,512l-1.9-3.9c-0.4-0.9-0.4-1.1,0.2-1.4l8.3-4.1c0.5-0.3,1-0.6,1.3-1l8.1-10.6c1-1.3,2.9-3,3.9-1
		l4.8,9.9l4.8,9.9c1,2-1.5,2.5-3.1,2.4l-13.4-0.2c-0.5,0-1.1,0.1-1.6,0.4l-8.3,4.1c-0.4,0.2-0.8,0.2-1.2-0.7L-591.6,512z"/>
	<path class="st5" d="M-582.6,514.2l2.9,6c0.1,0.2,0,0.5-0.2,0.6l-3.8,1.9c-0.2,0.1-0.5,0-0.6-0.2l-2.9-6"/>
	<line class="st5" x1="-560.1" y1="501.8" x2="-555.9" y2="503.2"/>
	<line class="st5" x1="-564" y1="493.9" x2="-562.5" y2="489.7"/>
	<line class="st5" x1="-562" y1="497.9" x2="-556.6" y2="495.2"/>
</g>
<g>
	<g>
		<path class="st4" d="M-619,559.4h15.8c1.3,0,2.3-1,2.3-2.3V536c0-1.3-1-2.3-2.3-2.3h-33.4c-1.3,0-2.3,1-2.3,2.3v21.1
			c0,1.3,1,2.3,2.3,2.3h5.8c1.3,0,2.3,1,2.3,2.3v5l7.9-6.8C-620.1,559.6-619.6,559.4-619,559.4z"/>
	</g>
	<g>
		<path class="st4" d="M-611.7,548.2c0.1-0.6-0.4-1.2-1-1c-0.3,0.1-0.6,0.4-0.7,0.7c-0.1,0.6,0.4,1.2,1,1
			C-612.1,548.9-611.8,548.6-611.7,548.2z"/>
		<path class="st4" d="M-621.8,539.3c0.1-0.6-0.4-1.2-1-1c-0.3,0.1-0.6,0.4-0.7,0.7c-0.1,0.6,0.4,1.2,1,1
			C-622.2,539.9-621.9,539.7-621.8,539.3z"/>
		<path class="st4" d="M-616.5,553c0.1-0.6-0.4-1.2-1-1c-0.3,0.1-0.6,0.4-0.7,0.7c-0.1,0.6,0.4,1.2,1,1
			C-616.8,553.6-616.5,553.3-616.5,553z"/>
		<path class="st4" d="M-626.3,547.3c0.1-0.6-0.4-1.2-1-1c-0.3,0.1-0.6,0.4-0.7,0.7c-0.1,0.6,0.4,1.2,1,1
			C-626.6,548-626.4,547.7-626.3,547.3z"/>
		<line class="st4" x1="-626.9" y1="546.3" x2="-623.4" y2="539.8"/>
		<line class="st4" x1="-616.5" y1="552.2" x2="-613.3" y2="548.7"/>
		<line class="st4" x1="-622.1" y1="539.9" x2="-617.9" y2="551.9"/>
	</g>
</g>
<g>
	<g>
		<path class="st5" d="M-574,559.4h15.8c1.3,0,2.3-1,2.3-2.3V536c0-1.3-1-2.3-2.3-2.3h-33.4c-1.3,0-2.3,1-2.3,2.3v21.1
			c0,1.3,1,2.3,2.3,2.3h5.8c1.3,0,2.3,1,2.3,2.3v5l7.9-6.8C-575.1,559.6-574.6,559.4-574,559.4z"/>
	</g>
	<g>
		<path class="st5" d="M-580.6,548c0.2-0.9-0.6-1.7-1.5-1.5c-0.5,0.1-0.9,0.5-1,1c-0.2,0.9,0.6,1.7,1.5,1.5
			C-581.1,548.9-580.7,548.4-580.6,548z"/>
		<path class="st5" d="M-576.3,539.3c0.2-0.9-0.6-1.7-1.5-1.5c-0.5,0.1-0.9,0.5-1,1c-0.2,0.9,0.6,1.7,1.5,1.5
			C-576.8,540.2-576.4,539.8-576.3,539.3z"/>
		<path class="st5" d="M-571.3,553.2c0.2-0.9-0.6-1.7-1.5-1.5c-0.5,0.1-0.9,0.5-1,1c-0.2,0.9,0.6,1.7,1.5,1.5
			C-571.8,554.1-571.4,553.7-571.3,553.2z"/>
		<path class="st5" d="M-566.7,548c0.2-0.9-0.6-1.7-1.5-1.5c-0.5,0.1-0.9,0.5-1,1c-0.2,0.9,0.6,1.7,1.5,1.5
			C-567.2,548.9-566.7,548.4-566.7,548z"/>
		<line class="st5" x1="-581.3" y1="546.4" x2="-578.1" y2="540.5"/>
		<line class="st5" x1="-571.7" y1="551.9" x2="-568.8" y2="548.7"/>
		<line class="st5" x1="-576.9" y1="540.5" x2="-573.1" y2="551.7"/>
	</g>
</g>
<g>
	<g>
		<path class="st4" d="M-604.2,597.7c0.2-0.9-0.6-1.7-1.5-1.5c-0.5,0.1-0.9,0.5-1,1c-0.2,0.9,0.6,1.7,1.5,1.5
			C-604.7,598.6-604.3,598.2-604.2,597.7z"/>
		<path class="st4" d="M-618.5,585.1c0.2-0.9-0.6-1.7-1.5-1.5c-0.5,0.1-0.9,0.5-1,1c-0.2,0.9,0.6,1.7,1.5,1.5
			C-619,586-618.6,585.6-618.5,585.1z"/>
		<path class="st4" d="M-611,604.4c0.2-0.9-0.6-1.7-1.5-1.5c-0.5,0.1-0.9,0.5-1,1c-0.2,0.9,0.6,1.7,1.5,1.5
			C-611.5,605.3-611.1,604.9-611,604.4z"/>
		<path class="st4" d="M-624.8,596.4c0.2-0.9-0.6-1.7-1.5-1.5c-0.5,0.1-0.9,0.5-1,1c-0.2,0.9,0.6,1.7,1.5,1.5
			C-625.3,597.3-624.9,596.9-624.8,596.4z"/>
		<line class="st4" x1="-625.7" y1="594.9" x2="-620.7" y2="585.8"/>
		<line class="st4" x1="-610.9" y1="603.3" x2="-606.4" y2="598.4"/>
		<line class="st4" x1="-618.9" y1="585.9" x2="-613" y2="602.9"/>
	</g>
	<path class="st4" d="M-607.8,608.5v2.6c0,1-1.4,1.8-2.5,1.8h-23.4c-1,0-1.8-0.8-1.8-1.8v-25.9c0-0.5,0.4-1,0.7-1.3l7.2-7.2
		c0.3-0.3,0.9-0.8,1.4-0.8h16.7c1,0,1.8,0.8,1.8,1.8v13.4"/>
	<path class="st4" d="M-635.1,584.6h6.3c1,0,1.9-0.8,1.9-1.8v-6.3"/>
</g>
<g>
	<g>
		<path class="st5" d="M-559.2,597.7c0.2-0.9-0.6-1.7-1.5-1.5c-0.5,0.1-0.9,0.5-1,1c-0.2,0.9,0.6,1.7,1.5,1.5
			C-559.7,598.6-559.3,598.2-559.2,597.7z"/>
		<path class="st5" d="M-573.5,585.1c0.2-0.9-0.6-1.7-1.5-1.5c-0.5,0.1-0.9,0.5-1,1c-0.2,0.9,0.6,1.7,1.5,1.5
			C-574,586-573.6,585.6-573.5,585.1z"/>
		<path class="st5" d="M-566,604.4c0.2-0.9-0.6-1.7-1.5-1.5c-0.5,0.1-0.9,0.5-1,1c-0.2,0.9,0.6,1.7,1.5,1.5
			C-566.5,605.3-566.1,604.9-566,604.4z"/>
		<path class="st5" d="M-579.8,596.4c0.2-0.9-0.6-1.7-1.5-1.5c-0.5,0.1-0.9,0.5-1,1c-0.2,0.9,0.6,1.7,1.5,1.5
			C-580.3,597.3-579.9,596.9-579.8,596.4z"/>
		<line class="st5" x1="-580.7" y1="594.9" x2="-575.7" y2="585.8"/>
		<line class="st5" x1="-565.9" y1="603.3" x2="-561.4" y2="598.4"/>
		<line class="st5" x1="-573.9" y1="585.9" x2="-568" y2="602.9"/>
	</g>
	<path class="st5" d="M-562.8,608.5v2.6c0,1-1.4,1.8-2.5,1.8h-23.4c-1,0-1.8-0.8-1.8-1.8v-25.9c0-0.5,0.4-1,0.7-1.3l7.2-7.2
		c0.3-0.3,0.9-0.8,1.4-0.8h16.7c1,0,1.8,0.8,1.8,1.8v13.4"/>
	<path class="st5" d="M-590.1,584.6h6.3c1,0,1.9-0.8,1.9-1.8v-6.3"/>
</g>
<g>
	<g>
		<line class="st6" x1="-629.1" y1="625.1" x2="-610.6" y2="625.1"/>
		<path class="st6" d="M-606.4,625.1h3.3c0.8,0,1.5,0.7,1.5,1.5V654c0,0.8-0.7,1.5-1.5,1.5H-637c-0.8,0-1.6-0.4-1.6-1.2v-28
			c0-0.8,0.8-1.2,1.6-1.2h3.1"/>
		<line class="st6" x1="-638.4" y1="632.2" x2="-601.7" y2="632.2"/>
		<line class="st6" x1="-631.5" y1="622.1" x2="-631.5" y2="627.5"/>
		<line class="st6" x1="-608.2" y1="622.1" x2="-608.2" y2="627.5"/>
	</g>
	<g>
		<line class="st6" x1="-614.3" y1="643.9" x2="-626.1" y2="643.9"/>
		<line class="st6" x1="-620.2" y1="638" x2="-620.2" y2="649.8"/>
	</g>
</g>
<g>
	<g>
		<line class="st5" x1="-583.8" y1="625.1" x2="-565.3" y2="625.1"/>
		<path class="st5" d="M-561.2,625.1h3.3c0.8,0,1.5,0.7,1.5,1.5V654c0,0.8-0.7,1.5-1.5,1.5h-33.9c-0.8,0-1.6-0.4-1.6-1.2v-28
			c0-0.8,0.8-1.2,1.6-1.2h3.1"/>
		<line class="st5" x1="-593.1" y1="632.2" x2="-556.4" y2="632.2"/>
		<line class="st5" x1="-586.2" y1="622.1" x2="-586.2" y2="627.5"/>
		<line class="st5" x1="-562.9" y1="622.1" x2="-562.9" y2="627.5"/>
	</g>
	<g>
		<line class="st5" x1="-569" y1="643.9" x2="-580.8" y2="643.9"/>
		<line class="st5" x1="-574.9" y1="638" x2="-574.9" y2="649.8"/>
	</g>
</g>
<g>
	<polyline class="st6" points="-629.1,688.2 -622.9,694.3 -610.7,682 	"/>
	<g>
		<line class="st6" x1="-628.8" y1="669.4" x2="-610.3" y2="669.4"/>
		<path class="st6" d="M-606.2,669.4h3.3c0.8,0,1.5,0.7,1.5,1.5v27.4c0,0.8-0.7,1.5-1.5,1.5h-33.9c-0.8,0-1.6-0.4-1.6-1.2v-28
			c0-0.8,0.8-1.2,1.6-1.2h3.1"/>
		<line class="st6" x1="-638.1" y1="676.5" x2="-601.4" y2="676.5"/>
		<line class="st6" x1="-631.2" y1="666.4" x2="-631.2" y2="671.8"/>
		<line class="st6" x1="-608" y1="666.4" x2="-608" y2="671.8"/>
	</g>
</g>
<g>
	<polyline class="st5" points="-584.1,688.2 -577.9,694.3 -565.7,682 	"/>
	<g>
		<line class="st5" x1="-583.8" y1="669.4" x2="-565.3" y2="669.4"/>
		<path class="st5" d="M-561.2,669.4h3.3c0.8,0,1.5,0.7,1.5,1.5v27.4c0,0.8-0.7,1.5-1.5,1.5h-33.9c-0.8,0-1.6-0.4-1.6-1.2v-28
			c0-0.8,0.8-1.2,1.6-1.2h3.1"/>
		<line class="st5" x1="-593.1" y1="676.5" x2="-556.4" y2="676.5"/>
		<line class="st5" x1="-586.2" y1="666.4" x2="-586.2" y2="671.8"/>
		<line class="st5" x1="-563" y1="666.4" x2="-563" y2="671.8"/>
	</g>
</g>
<g>
	<g>
		<line class="st6" x1="-628.8" y1="713.7" x2="-610.3" y2="713.7"/>
		<path class="st6" d="M-606.2,713.7h3.3c0.8,0,1.5,0.7,1.5,1.5v27.4c0,0.8-0.7,1.5-1.5,1.5h-33.9c-0.8,0-1.6-0.4-1.6-1.2v-28
			c0-0.8,0.8-1.2,1.6-1.2h3.1"/>
		<line class="st6" x1="-638.1" y1="720.8" x2="-601.4" y2="720.8"/>
		<line class="st6" x1="-631.2" y1="710.7" x2="-631.2" y2="716.1"/>
		<line class="st6" x1="-607.9" y1="710.7" x2="-607.9" y2="716.1"/>
	</g>
	<g>
		<line class="st6" x1="-614" y1="726.6" x2="-625.8" y2="738.4"/>
		<line class="st6" x1="-625.8" y1="726.6" x2="-614" y2="738.4"/>
	</g>
</g>
<g>
	<g>
		<line class="st5" x1="-583.8" y1="713.7" x2="-565.3" y2="713.7"/>
		<path class="st5" d="M-561.2,713.7h3.3c0.8,0,1.5,0.7,1.5,1.5v27.4c0,0.8-0.7,1.5-1.5,1.5h-33.9c-0.8,0-1.6-0.4-1.6-1.2v-28
			c0-0.8,0.8-1.2,1.6-1.2h3.1"/>
		<line class="st5" x1="-593.1" y1="720.8" x2="-556.4" y2="720.8"/>
		<line class="st5" x1="-586.2" y1="710.7" x2="-586.2" y2="716.1"/>
		<line class="st5" x1="-562.9" y1="710.7" x2="-562.9" y2="716.1"/>
	</g>
	<g>
		<line class="st5" x1="-569" y1="726.6" x2="-580.8" y2="738.4"/>
		<line class="st5" x1="-580.8" y1="726.6" x2="-569" y2="738.4"/>
	</g>
</g>
<g>
	<g>
		<path class="st6" d="M-604,790.8h-9.8c-0.3,0-0.6-0.3-0.6-0.6v-6.5c0-0.3,0.3-0.6,0.6-0.6h9.8c0.3,0,0.6,0.3,0.6,0.6v6.5
			C-603.4,790.5-603.6,790.8-604,790.8z"/>
		<polyline class="st6" points="-614.1,785.9 -608.7,786.8 -603.4,785.9 		"/>
		<polyline class="st6" points="-610.8,783.1 -610.8,780.8 -606.9,780.8 -606.9,783.1 		"/>
	</g>
	<ellipse class="st6" cx="-622.1" cy="760.9" rx="8.2" ry="8.2"/>
	<path class="st6" d="M-610.5,776.4c-2.6-3-6.8-4.4-11.6-4.4c-7.5,0-13.5,3.4-14.1,10.7l-0.1,6.9c0,0,0,1.1,1,1.1h16.3"/>
	<g>
		<polyline class="st6" points="-627.4,773.1 -629.8,778.6 -622.7,783.7 		"/>
		<polyline class="st6" points="-617.3,773.1 -614.9,778.6 -622,783.7 		"/>
		<path class="st6" d="M-627.2,772.8l4.7,11.1c0,0,0.1,0.2,0.3,0l5.1-11.1"/>
	</g>
</g>
<g>
	<g>
		<path class="st5" d="M-558.9,790.8h-9.9c-0.3,0-0.6-0.3-0.6-0.6v-6.5c0-0.3,0.3-0.6,0.6-0.6h9.9c0.3,0,0.6,0.3,0.6,0.6v6.5
			C-558.4,790.5-558.6,790.8-558.9,790.8z"/>
		<polyline class="st5" points="-569.2,785.9 -563.8,786.8 -558.4,785.9 		"/>
		<polyline class="st5" points="-565.8,783.1 -565.8,780.8 -561.9,780.8 -561.9,783.1 		"/>
	</g>
	<ellipse class="st5" cx="-577.1" cy="760.9" rx="8.2" ry="8.2"/>
	<path class="st5" d="M-565.5,776.4c-2.6-3-6.8-4.4-11.7-4.4c-7.5,0-13.5,3.4-14.1,10.7l-0.1,6.9c0,0,0,1.1,1,1.1h16.4"/>
	<g>
		<polyline class="st5" points="-582.5,773.1 -584.9,778.6 -577.8,783.7 		"/>
		<polyline class="st5" points="-572.4,773.1 -569.9,778.6 -577.1,783.7 		"/>
		<path class="st5" d="M-582.3,772.8l4.7,11.1c0,0,0.1,0.2,0.3,0l5.1-11.1"/>
	</g>
</g>
<g>
	<circle class="st6" cx="-619.9" cy="805.5" r="8"/>
	<path class="st6" d="M-606.1,833.3l-0.1-6.7c-0.6-7.1-6.5-10.4-13.7-10.4c-7.2,0-13.1,3.3-13.7,10.4l-0.1,6.7c0,0,0,1.1,1,1.1h25.5
		C-607.2,834.5-606.1,834.4-606.1,833.3z"/>
	<line class="st6" x1="-615" y1="829.5" x2="-612" y2="829.5"/>
	<g>
		<polyline class="st6" points="-625.5,817.4 -628,823 -620.8,828.2 		"/>
		<polyline class="st6" points="-615.3,817.4 -612.8,823 -620,828.2 		"/>
		<path class="st6" d="M-625.3,817l4.8,11.3c0,0,0.1,0.2,0.3,0l5.2-11.3"/>
	</g>
</g>
<g>
	<circle class="st5" cx="-574.9" cy="805.5" r="8"/>
	<path class="st5" d="M-561.1,833.3l-0.1-6.7c-0.6-7.1-6.5-10.4-13.7-10.4c-7.2,0-13.1,3.3-13.7,10.4l-0.1,6.7c0,0,0,1.1,1,1.1h25.5
		C-562.2,834.5-561.1,834.4-561.1,833.3z"/>
	<polyline class="st5" points="-580.4,817.4 -582.9,823 -575.6,828.2 	"/>
	<polyline class="st5" points="-570.1,817.4 -567.7,823 -574.9,828.2 	"/>
	<line class="st5" x1="-570" y1="831" x2="-567" y2="831"/>
	<path class="st5" d="M-580.2,817l4.8,11.3c0,0,0.1,0.2,0.3,0l5.2-11.3"/>
</g>
<g>
	<circle class="st6" cx="-619.9" cy="849.8" r="8"/>
	<path class="st6" d="M-606.1,877.6l-0.1-6.7c-0.6-7.1-6.5-10.4-13.7-10.4c-7.2,0-13.1,3.3-13.7,10.4l-0.1,6.7c0,0,0,1.1,1,1.1h25.5
		C-607.2,878.8-606.1,878.7-606.1,877.6z"/>
	<polyline class="st6" points="-622.5,861 -621.1,863.5 -621,863.5 -618.8,863.5 -618.6,863.5 -617.3,861 	"/>
	<path class="st6" d="M-618.7,863.4l1.4,6.6l-2.5,3.9c0,0-0.1,0.1-0.2,0l-2.5-3.9l1.4-6.6"/>
</g>
<g>
	<circle class="st5" cx="-574.9" cy="849.8" r="8"/>
	<path class="st5" d="M-561.1,877.6l-0.1-6.7c-0.6-7.1-6.5-10.4-13.7-10.4c-7.2,0-13.1,3.3-13.7,10.4l-0.1,6.7c0,0,0,1.1,1,1.1h25.5
		C-562.2,878.8-561.1,878.7-561.1,877.6z"/>
	<polyline class="st5" points="-577.5,861.3 -576.1,864 -576,864 -573.8,864 -573.6,864 -572.3,861.4 	"/>
	<path class="st5" d="M-573.7,863.4l1.4,6.6l-2.5,3.9c0,0-0.1,0.1-0.2,0l-2.5-3.9l1.4-6.6"/>
</g>
<g>
	<g>
		<circle class="st6" cx="-626.7" cy="895.4" r="7"/>
		<path class="st6" d="M-614.6,919.8l-0.1-5.8c-0.5-6.2-5.7-9.1-12-9.1c-6.4,0-11.5,2.9-12,9.1l-0.1,5.9c0,0,0,0.9,0.8,0.9h22.4
			C-615.6,920.9-614.6,920.8-614.6,919.8z"/>
	</g>
	<g>
		<line class="st6" x1="-600.9" y1="903.9" x2="-614" y2="903.9"/>
		<line class="st6" x1="-607.4" y1="897.4" x2="-607.4" y2="910.5"/>
	</g>
</g>
<g>
	<g>
		<circle class="st5" cx="-581.7" cy="895" r="7"/>
		<path class="st5" d="M-569.6,920.2l-0.1-5.8c-0.5-6.2-5.7-9.1-12-9.1c-6.4,0-11.5,2.9-12,9.1l-0.1,5.9c0,0,0,0.9,0.8,0.9h22.4
			C-570.6,921.2-569.6,921.1-569.6,920.2z"/>
	</g>
	<g>
		<line class="st5" x1="-555.9" y1="904.3" x2="-569" y2="904.3"/>
		<line class="st5" x1="-562.4" y1="897.7" x2="-562.4" y2="910.8"/>
	</g>
</g>
</svg>
