<?xml version="1.0" encoding="utf-8"?>
<!-- Generator: Adobe Illustrator 21.1.0, SVG Export Plug-In . SVG Version: 6.00 Build 0)  -->
<svg version="1.1" id="Camada_1" xmlns="http://www.w3.org/2000/svg" xmlns:xlink="http://www.w3.org/1999/xlink" x="0px" y="0px"
	 viewBox="0 0 26 153.8" style="enable-background:new 0 0 26 153.8;" xml:space="preserve">
<style type="text/css">
	.st0{fill:none;stroke:#FFFFFF;stroke-linecap:round;stroke-linejoin:round;}
	.st1{fill:none;stroke:#928ABE;stroke-miterlimit:10;}
</style>
<title>Prancheta 3</title>
<g>
	<line class="st0" x1="8.5" y1="32.1" x2="17.8" y2="32.1"/>
	<path class="st0" d="M19.9,32.1h1.6c0.4,0,0.8,0.3,0.8,0.8l0,0v13.8c0,0.4-0.3,0.8-0.8,0.8h-17c-0.4,0-0.8-0.2-0.8-0.6V32.7
		c0-0.4,0.4-0.6,0.8-0.6h1.6"/>
	<line class="st0" x1="3.8" y1="35.7" x2="22.3" y2="35.7"/>
	<line class="st0" x1="7.3" y1="30.6" x2="7.3" y2="33.3"/>
	<line class="st0" x1="19" y1="30.6" x2="19" y2="33.3"/>
</g>
<g>
	<polyline class="st0" points="14.8,76.3 16.5,80.1 17.8,76.8 21.1,78 19.3,74.3 	"/>
	<ellipse class="st0" cx="13" cy="66.4" rx="8.3" ry="8.3"/>
	<polyline class="st0" points="6.6,74.2 4.9,78 8.2,76.8 9.4,80.1 11.2,76.3 	"/>
</g>
<g>
	<path class="st0" d="M12.3,1.1l-9,9c-0.4,0.4-0.4,1,0,1.4c0.2,0.2,0.4,0.3,0.7,0.3l0,0c0.6,0,1,0.4,1,1l0,0v9.4c0,0.6,0.4,1,1,1
		h2.6c0.6,0,1-0.4,1-1v-4.1c0-0.6,0.4-1,1-1h4.1c0.6,0,1,0.4,1,1v4.1c0,0.6,0.4,1,1,1h2.6c0.6,0,1-0.4,1-1v-9.4c0-0.6,0.4-1,1-1H22
		c0.6,0,1-0.4,1-1c0-0.3-0.1-0.5-0.3-0.7l-9-9C13.3,0.7,12.7,0.7,12.3,1.1z"/>
</g>
<g>
	<path class="st0" d="M24.5,99.2c0.1-0.7-0.3-1.3-1-1.5s-1.3,0.3-1.5,1c-0.1,0.7,0.3,1.3,1,1.5c0.2,0,0.3,0,0.5,0
		C24,100.1,24.4,99.7,24.5,99.2z"/>
	<path class="st0" d="M10.3,86.7c0.1-0.7-0.3-1.3-1-1.5s-1.3,0.3-1.5,1c-0.1,0.7,0.3,1.3,1,1.5c0.2,0,0.3,0,0.5,0
		C9.8,87.6,10.2,87.2,10.3,86.7z"/>
	<path class="st0" d="M17.8,105.9c0.1-0.7-0.3-1.3-1-1.5s-1.3,0.3-1.5,1c-0.1,0.7,0.3,1.3,1,1.5c0.2,0,0.3,0,0.5,0
		C17.3,106.8,17.7,106.4,17.8,105.9z"/>
	<path class="st0" d="M4,97.9c0.1-0.7-0.3-1.3-1-1.5c-0.7-0.1-1.3,0.3-1.5,1s0.3,1.3,1,1.5c0.2,0,0.3,0,0.5,0
		C3.5,98.8,3.9,98.4,4,97.9z"/>
	<line class="st0" x1="3.2" y1="96.4" x2="8.2" y2="87.2"/>
	<line class="st0" x1="17.8" y1="104.8" x2="22.4" y2="99.8"/>
	<line class="st0" x1="9.9" y1="87.2" x2="15.7" y2="104.4"/>
</g>
<polyline class="st1" points="19,144 13,150 7,144 "/>
<g>
	<path class="st1" d="M20.5,128.5c0,0-0.1-0.6-0.5-0.9c0,0-2.8-1.6-2.8-6.8c0-3.8-4.3-3.7-4.3-3.7s-4.2,0-4.2,3.7
		c0,5.2-2.8,6.8-2.8,6.8c-0.4,0.3-0.5,0.9-0.5,0.9s0,0.8,0.6,0.8h13.7C20.5,129.3,20.5,128.5,20.5,128.5z"/>
	<path class="st1" d="M10.5,131c0.3,0.9,1.3,1.9,2.5,1.9s2.2-1,2.5-1.9"/>
</g>
</svg>
