<?xml version="1.0" encoding="utf-8"?>
<!-- Generator: Adobe Illustrator 21.1.0, SVG Export Plug-In . SVG Version: 6.00 Build 0)  -->
<svg version="1.1" id="Camada_1" xmlns="http://www.w3.org/2000/svg" xmlns:xlink="http://www.w3.org/1999/xlink" x="0px" y="0px"
	 viewBox="0 0 121.3 620.7" style="enable-background:new 0 0 121.3 620.7;" xml:space="preserve">
<style type="text/css">
	.st0{fill:none;stroke:#FFFFFF;stroke-linecap:round;stroke-linejoin:round;}
	.st1{fill:none;stroke:#928ABE;stroke-miterlimit:10;}
	.st2{fill:none;stroke:#FFFFFF;stroke-linecap:round;stroke-linejoin:round;stroke-miterlimit:10;}
	.st3{fill:none;stroke:#F0F0F7;stroke-miterlimit:10;}
	.st4{fill:none;stroke:#4D4C4C;stroke-miterlimit:10;}
	.st5{fill:none;stroke:#6453A2;stroke-width:2;stroke-linecap:round;stroke-miterlimit:10;}
	.st6{fill:none;stroke:#4D4C4C;stroke-linecap:round;stroke-miterlimit:10;}
</style>
<title>Prancheta 3</title>
<g>
	<line class="st0" x1="8.5" y1="32.1" x2="17.8" y2="32.1"/>
	<path class="st0" d="M19.9,32.1h1.6c0.4,0,0.8,0.3,0.8,0.8l0,0v13.9c0,0.4-0.3,0.8-0.8,0.8H4.4c-0.4,0-0.8-0.2-0.8-0.6V32.7
		c0-0.4,0.4-0.6,0.8-0.6H6"/>
	<line class="st0" x1="3.7" y1="35.7" x2="22.4" y2="35.7"/>
	<line class="st0" x1="7.3" y1="30.6" x2="7.3" y2="33.3"/>
	<line class="st0" x1="19" y1="30.6" x2="19" y2="33.3"/>
</g>
<g>
	<polyline class="st0" points="14.6,74.8 16.3,78.6 17.6,75.3 20.9,76.5 19.1,72.8 	"/>
	<ellipse class="st0" cx="12.8" cy="64.9" rx="8.3" ry="8.3"/>
	<polyline class="st0" points="6.4,72.7 4.7,76.5 8,75.3 9.2,78.6 11,74.8 	"/>
</g>
<g>
	<path class="st0" d="M12.3,1.1l-9,9c-0.4,0.4-0.4,1,0,1.4c0.2,0.2,0.4,0.3,0.7,0.3l0,0c0.6,0,1,0.4,1,1l0,0v9.4c0,0.6,0.4,1,1,1
		h2.6c0.6,0,1-0.4,1-1v-4.1c0-0.6,0.4-1,1-1h4.1c0.6,0,1,0.4,1,1v4.1c0,0.6,0.4,1,1,1h2.6c0.6,0,1-0.4,1-1v-9.4c0-0.6,0.4-1,1-1H22
		c0.6,0,1-0.4,1-1c0-0.3-0.1-0.5-0.3-0.7l-9-9C13.3,0.7,12.7,0.7,12.3,1.1z"/>
</g>
<g>
	<path class="st0" d="M24.1,99.1c0.1-0.7-0.3-1.3-1-1.4c-0.7-0.2-1.3,0.3-1.4,1c-0.1,0.7,0.3,1.3,1,1.4c0.2,0,0.3,0,0.5,0
		C23.6,100,24,99.6,24.1,99.1z"/>
	<path class="st0" d="M10.4,87c0.1-0.7-0.3-1.3-1-1.4c-0.7-0.2-1.3,0.3-1.4,1c-0.1,0.7,0.3,1.3,1,1.4c0.2,0,0.3,0,0.5,0
		C9.9,87.9,10.3,87.5,10.4,87z"/>
	<path class="st0" d="M17.6,105.6c0.1-0.7-0.3-1.3-1-1.4c-0.7-0.2-1.3,0.3-1.4,1c-0.1,0.7,0.3,1.3,1,1.4c0.2,0,0.3,0,0.5,0
		C17.2,106.4,17.5,106,17.6,105.6z"/>
	<path class="st0" d="M4.3,97.8c0.1-0.7-0.3-1.3-1-1.4s-1.3,0.3-1.4,1c-0.2,0.7,0.3,1.3,1,1.4c0.2,0,0.3,0,0.5,0
		C3.8,98.7,4.2,98.3,4.3,97.8z"/>
	<line class="st0" x1="3.5" y1="96.4" x2="8.4" y2="87.5"/>
	<line class="st0" x1="17.6" y1="104.5" x2="22.1" y2="99.7"/>
	<line class="st0" x1="10" y1="87.5" x2="15.6" y2="104.1"/>
</g>
<polyline class="st1" points="18.8,148 12.8,154 6.8,148 "/>
<g>
	<path class="st1" d="M20.3,126.7c0,0-0.1-0.6-0.5-0.9c0,0-2.8-1.6-2.8-6.8c0-3.8-4.3-3.7-4.3-3.7s-4.2,0-4.2,3.7
		c0,5.2-2.8,6.8-2.8,6.8c-0.4,0.3-0.5,0.9-0.5,0.9s0,0.8,0.6,0.8h13.6C20.3,127.5,20.3,126.7,20.3,126.7z"/>
	<path class="st1" d="M10.4,129.2c0.3,0.9,1.3,1.9,2.5,1.9s2.2-1,2.5-1.9"/>
</g>
<path class="st2" d="M12.2,185.2l-4.9,3.6c-0.7,0.6-1.8-0.2-1.5-1.1l2-5.9c0.1-0.4,0-0.8-0.3-1.1l-4.4-3.4c-0.7-0.6-0.3-1.8,0.6-1.8
	h5c0.4,0,0.9-0.2,1-0.6l2-5.8c0.3-0.9,1.5-0.9,1.8,0l2,5.8c0.1,0.4,0.8,0.6,1.2,0.6h5c0.9,0,1.2,1.2,0.5,1.8l-4.4,3.4
	c-0.3,0.2-0.4,0.7-0.3,1.1l2,5.9c0.3,0.9-0.7,1.6-1.5,1.1l-4.9-3.6C13,184.9,12.5,184.9,12.2,185.2z"/>
<g>
	<path class="st2" d="M23.8,209.6c0.2-0.8-0.6-1.6-1.4-1.4c-0.5,0.1-0.9,0.5-0.9,0.9c-0.2,0.8,0.6,1.6,1.4,1.4
		C23.3,210.5,23.7,210.1,23.8,209.6z"/>
	<path class="st2" d="M10.2,197.7c0.2-0.8-0.6-1.6-1.4-1.4c-0.5,0.1-0.9,0.5-0.9,0.9c-0.2,0.8,0.6,1.6,1.4,1.4
		C9.7,198.5,10.1,198.1,10.2,197.7z"/>
	<path class="st2" d="M17.4,216c0.2-0.8-0.6-1.6-1.4-1.4c-0.5,0.1-0.9,0.5-0.9,0.9c-0.2,0.8,0.6,1.6,1.4,1.4
		C16.9,216.9,17.3,216.5,17.4,216z"/>
	<path class="st2" d="M4.2,208.4c0.2-0.8-0.6-1.6-1.4-1.4c-0.5,0.1-0.9,0.5-0.9,0.9c-0.2,0.8,0.6,1.6,1.4,1.4
		C3.7,209.3,4.1,208.9,4.2,208.4z"/>
	<line class="st2" x1="3.4" y1="207" x2="8.2" y2="198.2"/>
	<line class="st2" x1="17.4" y1="215" x2="21.8" y2="210.2"/>
	<line class="st2" x1="9.8" y1="198.2" x2="15.4" y2="214.6"/>
</g>
<g>
	<path class="st3" d="M3.1,237.9L2,235.6c-0.3-0.5-0.2-0.6,0.1-0.8l4.8-2.3c0.3-0.2,0.6-0.4,0.8-0.6l4.7-6.1
		c0.6-0.7,1.7-1.7,2.2-0.6l2.8,5.7l2.8,5.7c0.6,1.1-0.9,1.4-1.8,1.4l-7.8-0.1c-0.3,0-0.6,0.1-0.9,0.2l-4.8,2.3
		c-0.2,0.1-0.5,0.1-0.7-0.4L3.1,237.9z"/>
	<path class="st3" d="M8.3,239.2l1.7,3.5c0.1,0.1,0,0.3-0.1,0.4l-2.2,1.1c-0.1,0.1-0.3,0-0.4-0.1l-1.7-3.5"/>
	<line class="st3" x1="21.4" y1="232" x2="23.8" y2="232.9"/>
	<line class="st3" x1="19.1" y1="227.5" x2="20" y2="225"/>
	<line class="st3" x1="20.3" y1="229.8" x2="23.4" y2="228.2"/>
</g>
<g>
	<g>
		<circle class="st2" cx="8.3" cy="258" r="3.5"/>
		<path class="st2" d="M14.4,270.9V268c-0.3-3.1-2.8-4.5-6-4.5s-5.7,1.4-6,4.5v3c0,0,0,0.5,0.4,0.5H14
			C13.9,271.4,14.4,271.4,14.4,270.9z"/>
	</g>
	<g>
		<circle class="st2" cx="18.1" cy="256" r="3"/>
		<path class="st2" d="M16.8,267.8h6c0,0,0.5,0,0.5-0.5v-2.5c-0.2-2.7-2.4-3.9-5.2-3.9c-1.8,0-3.3,0.5-4.3,1.6"/>
	</g>
</g>
<g>
	<polyline class="st4" points="52,32 54.7,38 56.7,32.7 62,34.7 59.2,28.7 	"/>
	<circle class="st4" cx="49.1" cy="16.2" r="13.2"/>
	<polyline class="st4" points="39,28.7 36.2,34.7 41.5,32.7 43.4,38 46.2,32 	"/>
</g>
<g>
	<polyline class="st5" points="97,32 99.7,38 101.7,32.7 107,34.7 104.2,28.7 	"/>
	<circle class="st5" cx="94.1" cy="16.2" r="13.2"/>
	<polyline class="st5" points="84,28.7 81.2,34.7 86.5,32.7 88.4,38 91.2,32 	"/>
</g>
<path class="st4" d="M48.1,76l-8.6,6.4c-1.3,1-3.1-0.3-2.6-1.9l3.5-10.4c0.2-0.7,0-1.4-0.6-1.9l-7.7-6c-1.3-1-0.5-3.1,1.1-3.1h8.9
	c0.7,0,1.6-0.4,1.8-1l3.6-10.3c0.5-1.5,2.7-1.5,3.2,0l3.6,10.3c0.2,0.7,1.4,1,2.1,1h8.9c1.6,0,2.1,2.1,0.8,3.1l-7.7,6
	c-0.6,0.4-0.8,1.2-0.6,1.9l3.5,10.4c0.5,1.6-1.3,2.9-2.6,1.9L50.1,76C49.5,75.6,48.7,75.6,48.1,76z"/>
<path class="st5" d="M93.1,76l-8.6,6.4c-1.3,1-3.1-0.3-2.6-1.9l3.5-10.4c0.2-0.7,0-1.4-0.6-1.9l-7.7-6c-1.3-1-0.5-3.1,1.1-3.1h8.9
	c0.7,0,1.6-0.4,1.8-1l3.6-10.3c0.5-1.5,2.7-1.5,3.2,0l3.6,10.3c0.2,0.7,1.4,1,2.1,1h8.9c1.6,0,2.1,2.1,0.8,3.1l-7.7,6
	c-0.6,0.4-0.8,1.2-0.6,1.9l3.5,10.4c0.5,1.6-1.3,2.9-2.6,1.9L95.1,76C94.5,75.6,93.7,75.6,93.1,76z"/>
<g>
	<g>
		<path class="st4" d="M39.6,105.7c0,6.1,9.5,11.6,9.5,11.6s9.5-5.5,9.5-11.6c0-2.5-1.8-4.9-4.6-4.9c-2.5,0-4.9,1.7-4.9,4.3
			c0-2.5-2.4-4.3-4.9-4.3C41.4,100.8,39.6,103.2,39.6,105.7z"/>
		<path class="st4" d="M56.5,106c0-1.6-1.1-3.1-2.9-3.1"/>
	</g>
	<g>
		<polyline class="st4" points="69.1,118.5 66.7,113.7 61.8,115.5 		"/>
		<polyline class="st4" points="29.1,99.2 31.2,103.5 35.6,102.3 		"/>
		<path class="st4" d="M31.2,103.5c2.3-7.7,9.3-13.2,17.6-13.2c8.2,0,15.2,5.5,17.5,13.2"/>
		<path class="st4" d="M66.6,113.7c-2,8.2-9.2,14.2-17.8,14.2c-8.5,0-15.7-6-17.8-14"/>
	</g>
</g>
<g>
	<g>
		<path class="st5" d="M85.1,105.9c0,5.8,9,11,9,11s9-5.2,9-11c0-2.4-1.7-4.6-4.4-4.6c-2.4,0-4.7,1.7-4.7,4.1c0-2.4-2.2-4.1-4.7-4.1
			C86.8,101.3,85.1,103.5,85.1,105.9z"/>
		<path class="st5" d="M100.7,106.2c0-1.2-0.9-2.4-2.2-2.4"/>
	</g>
	<g>
		<polyline class="st5" points="113.1,118 110.8,113.5 106.2,115.2 		"/>
		<polyline class="st5" points="75.1,99.7 77.1,103.8 81.3,102.6 		"/>
		<path class="st5" d="M77.1,103.8c2.2-7.3,8.8-12.5,16.7-12.5c7.8,0,14.5,5.3,16.7,12.5"/>
		<path class="st5" d="M110.7,113.4c-1.9,7.7-8.8,13.5-16.9,13.5c-8.1,0-14.9-5.7-16.9-13.3"/>
	</g>
</g>
<g>
	<path class="st4" d="M57.5,167.2v2.6c0,1-1.4,1.8-2.4,1.8H31.9c-1,0-1.8-0.8-1.8-1.8v-25.6c0-0.5,0.4-1,0.7-1.3l7.1-7.1
		c0.3-0.3,0.9-0.8,1.4-0.8h16.5c1,0,1.8,0.8,1.8,1.8v3.5"/>
	<g>
		<path class="st4" d="M47,149.6c0,6.8,10.6,13,10.6,13s10.6-6.1,10.6-13c0-2.8-2-5.5-5.1-5.5c-2.8,0-5.5,2-5.5,4.8
			c0-2.8-2.6-4.8-5.5-4.8C49,144.2,47,146.8,47,149.6z"/>
		<path class="st4" d="M65.9,150c0-1.8-1.3-3.4-3.2-3.4"/>
	</g>
	<g>
		<line class="st4" x1="36" y1="156.3" x2="43" y2="156.3"/>
		<line class="st4" x1="36" y1="162.3" x2="49" y2="162.3"/>
		<line class="st4" x1="36" y1="150.3" x2="41" y2="150.3"/>
	</g>
	<path class="st4" d="M30.1,144h6.8c1.1,0,2-0.9,2-2v-6.8"/>
</g>
<g>
	<path class="st5" d="M102.5,167.2v2.6c0,1-1.4,1.8-2.4,1.8H76.9c-1,0-1.8-0.8-1.8-1.8v-25.6c0-0.5,0.4-1,0.7-1.3l7.1-7.1
		c0.3-0.3,0.9-0.8,1.4-0.8h16.5c1,0,1.8,0.8,1.8,1.8v3.5"/>
	<g>
		<path class="st5" d="M92,149.6c0,6.8,10.6,13,10.6,13s10.6-6.1,10.6-13c0-2.8-2-5.5-5.1-5.5c-2.8,0-5.5,2-5.5,4.8
			c0-2.8-2.6-4.8-5.5-4.8C94,144.2,92,146.8,92,149.6z"/>
		<path class="st5" d="M110.2,150c0-1.4-1-2.7-2.6-2.7"/>
	</g>
	<g>
		<line class="st5" x1="81" y1="156.8" x2="88" y2="156.8"/>
		<line class="st5" x1="81" y1="162.8" x2="94" y2="162.8"/>
		<line class="st5" x1="81" y1="150.8" x2="86" y2="150.8"/>
	</g>
	<path class="st5" d="M76.1,145h6.8c1.1,0,2-0.9,2-2v-6.8"/>
</g>
<g>
	<path class="st6" d="M32.3,203.8l-1.9-3.9c-0.4-0.9-0.4-1.1,0.2-1.4l8.3-4.1c0.5-0.3,1-0.6,1.3-1l8.1-10.6c1-1.3,2.9-3,3.9-1
		l4.8,9.9l4.8,9.9c1,2-1.5,2.5-3.2,2.4l-13.4-0.2c-0.5,0-1.1,0.1-1.6,0.4l-8.3,4.1c-0.4,0.2-0.8,0.2-1.2-0.7L32.3,203.8z"/>
	<path class="st6" d="M41.3,206l2.9,6c0.1,0.2,0,0.5-0.2,0.6l-3.8,1.9c-0.2,0.1-0.5,0-0.6-0.2l-2.9-6"/>
	<line class="st6" x1="63.9" y1="193.6" x2="68.1" y2="195"/>
	<line class="st6" x1="60.1" y1="185.7" x2="61.5" y2="181.5"/>
	<line class="st6" x1="62" y1="189.7" x2="67.4" y2="187"/>
</g>
<g>
	<path class="st5" d="M77.4,203.8l-1.9-3.9c-0.4-0.9-0.4-1.1,0.2-1.4l8.3-4.1c0.5-0.3,1-0.6,1.3-1l8.1-10.6c1-1.3,2.9-3,3.9-1
		l4.8,9.9l4.8,9.9c1,2-1.5,2.5-3.1,2.4l-13.4-0.2c-0.5,0-1.1,0.1-1.6,0.4l-8.3,4.1c-0.4,0.2-0.8,0.2-1.2-0.7L77.4,203.8z"/>
	<path class="st5" d="M86.4,206l2.9,6c0.1,0.2,0,0.5-0.2,0.6l-3.8,1.9c-0.2,0.1-0.5,0-0.6-0.2l-2.9-6"/>
	<line class="st5" x1="108.9" y1="193.6" x2="113.1" y2="195"/>
	<line class="st5" x1="105" y1="185.7" x2="106.5" y2="181.5"/>
	<line class="st5" x1="107" y1="189.7" x2="112.4" y2="187"/>
</g>
<g>
	<g>
		<path class="st4" d="M50,251.2h15.8c1.3,0,2.3-1,2.3-2.3v-21.1c0-1.3-1-2.3-2.3-2.3H32.4c-1.3,0-2.3,1-2.3,2.3v21.1
			c0,1.3,1,2.3,2.3,2.3h5.8c1.3,0,2.3,1,2.3,2.3v5l7.9-6.8C48.9,251.4,49.4,251.2,50,251.2z"/>
	</g>
	<g>
		<path class="st4" d="M57.3,240c0.1-0.6-0.4-1.2-1-1c-0.3,0.1-0.6,0.4-0.7,0.7c-0.1,0.6,0.4,1.2,1,1
			C56.9,240.7,57.2,240.4,57.3,240z"/>
		<path class="st4" d="M47.2,231.1c0.1-0.6-0.4-1.2-1-1c-0.3,0.1-0.6,0.4-0.7,0.7c-0.1,0.6,0.4,1.2,1,1
			C46.8,231.7,47.1,231.5,47.2,231.1z"/>
		<path class="st4" d="M52.5,244.8c0.1-0.6-0.4-1.2-1-1c-0.3,0.1-0.6,0.4-0.7,0.7c-0.1,0.6,0.4,1.2,1,1
			C52.2,245.4,52.5,245.1,52.5,244.8z"/>
		<path class="st4" d="M42.7,239.1c0.1-0.6-0.4-1.2-1-1c-0.3,0.1-0.6,0.4-0.7,0.7c-0.1,0.6,0.4,1.2,1,1
			C42.4,239.8,42.6,239.5,42.7,239.1z"/>
		<line class="st4" x1="42.1" y1="238.1" x2="45.6" y2="231.6"/>
		<line class="st4" x1="52.5" y1="244" x2="55.7" y2="240.5"/>
		<line class="st4" x1="46.9" y1="231.7" x2="51.1" y2="243.7"/>
	</g>
</g>
<g>
	<g>
		<path class="st5" d="M95,251.2h15.8c1.3,0,2.3-1,2.3-2.3v-21.1c0-1.3-1-2.3-2.3-2.3H77.4c-1.3,0-2.3,1-2.3,2.3v21.1
			c0,1.3,1,2.3,2.3,2.3h5.8c1.3,0,2.3,1,2.3,2.3v5l7.9-6.8C93.9,251.4,94.4,251.2,95,251.2z"/>
	</g>
	<g>
		<path class="st5" d="M88.4,239.8c0.2-0.9-0.6-1.7-1.5-1.5c-0.5,0.1-0.9,0.5-1,1c-0.2,0.9,0.6,1.7,1.5,1.5
			C87.9,240.7,88.3,240.2,88.4,239.8z"/>
		<path class="st5" d="M92.7,231.1c0.2-0.9-0.6-1.7-1.5-1.5c-0.5,0.1-0.9,0.5-1,1c-0.2,0.9,0.6,1.7,1.5,1.5
			C92.2,232,92.6,231.6,92.7,231.1z"/>
		<path class="st5" d="M97.7,245c0.2-0.9-0.6-1.7-1.5-1.5c-0.5,0.1-0.9,0.5-1,1c-0.2,0.9,0.6,1.7,1.5,1.5
			C97.2,245.9,97.6,245.5,97.7,245z"/>
		<path class="st5" d="M102.3,239.8c0.2-0.9-0.6-1.7-1.5-1.5c-0.5,0.1-0.9,0.5-1,1c-0.2,0.9,0.6,1.7,1.5,1.5
			C101.8,240.7,102.3,240.2,102.3,239.8z"/>
		<line class="st5" x1="87.7" y1="238.2" x2="90.9" y2="232.3"/>
		<line class="st5" x1="97.3" y1="243.7" x2="100.2" y2="240.5"/>
		<line class="st5" x1="92.1" y1="232.3" x2="95.9" y2="243.5"/>
	</g>
</g>
<g>
	<g>
		<path class="st4" d="M64.8,289.5c0.2-0.9-0.6-1.7-1.5-1.5c-0.5,0.1-0.9,0.5-1,1c-0.2,0.9,0.6,1.7,1.5,1.5
			C64.3,290.4,64.7,290,64.8,289.5z"/>
		<path class="st4" d="M50.5,276.9c0.2-0.9-0.6-1.7-1.5-1.5c-0.5,0.1-0.9,0.5-1,1c-0.2,0.9,0.6,1.7,1.5,1.5
			C50,277.8,50.4,277.4,50.5,276.9z"/>
		<path class="st4" d="M58,296.2c0.2-0.9-0.6-1.7-1.5-1.5c-0.5,0.1-0.9,0.5-1,1c-0.2,0.9,0.6,1.7,1.5,1.5
			C57.5,297.1,57.9,296.7,58,296.2z"/>
		<path class="st4" d="M44.2,288.2c0.2-0.9-0.6-1.7-1.5-1.5c-0.5,0.1-0.9,0.5-1,1c-0.2,0.9,0.6,1.7,1.5,1.5
			C43.7,289.1,44.1,288.7,44.2,288.2z"/>
		<line class="st4" x1="43.3" y1="286.7" x2="48.3" y2="277.6"/>
		<line class="st4" x1="58.1" y1="295.1" x2="62.6" y2="290.2"/>
		<line class="st4" x1="50.1" y1="277.7" x2="56" y2="294.7"/>
	</g>
	<path class="st4" d="M61.2,300.3v2.6c0,1-1.4,1.8-2.5,1.8H35.3c-1,0-1.8-0.8-1.8-1.8V277c0-0.5,0.4-1,0.7-1.3l7.2-7.2
		c0.3-0.3,0.9-0.8,1.4-0.8h16.7c1,0,1.8,0.8,1.8,1.8v13.4"/>
	<path class="st4" d="M33.9,276.4h6.3c1,0,1.9-0.8,1.9-1.8v-6.3"/>
</g>
<g>
	<g>
		<path class="st5" d="M109.8,289.5c0.2-0.9-0.6-1.7-1.5-1.5c-0.5,0.1-0.9,0.5-1,1c-0.2,0.9,0.6,1.7,1.5,1.5
			C109.3,290.4,109.7,290,109.8,289.5z"/>
		<path class="st5" d="M95.5,276.9c0.2-0.9-0.6-1.7-1.5-1.5c-0.5,0.1-0.9,0.5-1,1c-0.2,0.9,0.6,1.7,1.5,1.5
			C95,277.8,95.4,277.4,95.5,276.9z"/>
		<path class="st5" d="M103,296.2c0.2-0.9-0.6-1.7-1.5-1.5c-0.5,0.1-0.9,0.5-1,1c-0.2,0.9,0.6,1.7,1.5,1.5
			C102.5,297.1,102.9,296.7,103,296.2z"/>
		<path class="st5" d="M89.2,288.2c0.2-0.9-0.6-1.7-1.5-1.5c-0.5,0.1-0.9,0.5-1,1c-0.2,0.9,0.6,1.7,1.5,1.5
			C88.7,289.1,89.1,288.7,89.2,288.2z"/>
		<line class="st5" x1="88.3" y1="286.7" x2="93.3" y2="277.6"/>
		<line class="st5" x1="103.1" y1="295.1" x2="107.6" y2="290.2"/>
		<line class="st5" x1="95.1" y1="277.7" x2="101" y2="294.7"/>
	</g>
	<path class="st5" d="M106.2,300.3v2.6c0,1-1.4,1.8-2.5,1.8H80.3c-1,0-1.8-0.8-1.8-1.8V277c0-0.5,0.4-1,0.7-1.3l7.2-7.2
		c0.3-0.3,0.9-0.8,1.4-0.8h16.7c1,0,1.8,0.8,1.8,1.8v13.4"/>
	<path class="st5" d="M78.9,276.4h6.3c1,0,1.9-0.8,1.9-1.8v-6.3"/>
</g>
<g>
	<g>
		<line class="st6" x1="39.9" y1="316.9" x2="58.4" y2="316.9"/>
		<path class="st6" d="M62.6,316.9h3.3c0.8,0,1.5,0.7,1.5,1.5v27.4c0,0.8-0.7,1.5-1.5,1.5H32c-0.8,0-1.6-0.4-1.6-1.2v-28
			c0-0.8,0.8-1.2,1.6-1.2h3.1"/>
		<line class="st6" x1="30.6" y1="324" x2="67.3" y2="324"/>
		<line class="st6" x1="37.5" y1="313.9" x2="37.5" y2="319.3"/>
		<line class="st6" x1="60.8" y1="313.9" x2="60.8" y2="319.3"/>
	</g>
	<g>
		<line class="st6" x1="54.7" y1="335.7" x2="42.9" y2="335.7"/>
		<line class="st6" x1="48.8" y1="329.8" x2="48.8" y2="341.6"/>
	</g>
</g>
<g>
	<g>
		<line class="st5" x1="85.2" y1="316.9" x2="103.7" y2="316.9"/>
		<path class="st5" d="M107.8,316.9h3.3c0.8,0,1.5,0.7,1.5,1.5v27.4c0,0.8-0.7,1.5-1.5,1.5H77.2c-0.8,0-1.6-0.4-1.6-1.2v-28
			c0-0.8,0.8-1.2,1.6-1.2h3.1"/>
		<line class="st5" x1="75.9" y1="324" x2="112.6" y2="324"/>
		<line class="st5" x1="82.8" y1="313.9" x2="82.8" y2="319.3"/>
		<line class="st5" x1="106.1" y1="313.9" x2="106.1" y2="319.3"/>
	</g>
	<g>
		<line class="st5" x1="100" y1="335.7" x2="88.2" y2="335.7"/>
		<line class="st5" x1="94.1" y1="329.8" x2="94.1" y2="341.6"/>
	</g>
</g>
<g>
	<polyline class="st6" points="39.9,380 46.1,386.1 58.3,373.8 	"/>
	<g>
		<line class="st6" x1="40.2" y1="361.2" x2="58.7" y2="361.2"/>
		<path class="st6" d="M62.8,361.2h3.3c0.8,0,1.5,0.7,1.5,1.5v27.4c0,0.8-0.7,1.5-1.5,1.5H32.2c-0.8,0-1.6-0.4-1.6-1.2v-28
			c0-0.8,0.8-1.2,1.6-1.2h3.1"/>
		<line class="st6" x1="30.9" y1="368.3" x2="67.6" y2="368.3"/>
		<line class="st6" x1="37.8" y1="358.2" x2="37.8" y2="363.6"/>
		<line class="st6" x1="61" y1="358.2" x2="61" y2="363.6"/>
	</g>
</g>
<g>
	<polyline class="st5" points="84.9,380 91.1,386.1 103.3,373.8 	"/>
	<g>
		<line class="st5" x1="85.2" y1="361.2" x2="103.7" y2="361.2"/>
		<path class="st5" d="M107.8,361.2h3.3c0.8,0,1.5,0.7,1.5,1.5v27.4c0,0.8-0.7,1.5-1.5,1.5H77.2c-0.8,0-1.6-0.4-1.6-1.2v-28
			c0-0.8,0.8-1.2,1.6-1.2h3.1"/>
		<line class="st5" x1="75.9" y1="368.3" x2="112.6" y2="368.3"/>
		<line class="st5" x1="82.8" y1="358.2" x2="82.8" y2="363.6"/>
		<line class="st5" x1="106" y1="358.2" x2="106" y2="363.6"/>
	</g>
</g>
<g>
	<g>
		<line class="st6" x1="40.2" y1="405.5" x2="58.7" y2="405.5"/>
		<path class="st6" d="M62.8,405.5h3.3c0.8,0,1.5,0.7,1.5,1.5v27.4c0,0.8-0.7,1.5-1.5,1.5H32.2c-0.8,0-1.6-0.4-1.6-1.2v-28
			c0-0.8,0.8-1.2,1.6-1.2h3.1"/>
		<line class="st6" x1="30.9" y1="412.6" x2="67.6" y2="412.6"/>
		<line class="st6" x1="37.8" y1="402.5" x2="37.8" y2="407.9"/>
		<line class="st6" x1="61.1" y1="402.5" x2="61.1" y2="407.9"/>
	</g>
	<g>
		<line class="st6" x1="55" y1="418.4" x2="43.2" y2="430.2"/>
		<line class="st6" x1="43.2" y1="418.4" x2="55" y2="430.2"/>
	</g>
</g>
<g>
	<g>
		<line class="st5" x1="85.2" y1="405.5" x2="103.7" y2="405.5"/>
		<path class="st5" d="M107.8,405.5h3.3c0.8,0,1.5,0.7,1.5,1.5v27.4c0,0.8-0.7,1.5-1.5,1.5H77.2c-0.8,0-1.6-0.4-1.6-1.2v-28
			c0-0.8,0.8-1.2,1.6-1.2h3.1"/>
		<line class="st5" x1="75.9" y1="412.6" x2="112.6" y2="412.6"/>
		<line class="st5" x1="82.8" y1="402.5" x2="82.8" y2="407.9"/>
		<line class="st5" x1="106.1" y1="402.5" x2="106.1" y2="407.9"/>
	</g>
	<g>
		<line class="st5" x1="100" y1="418.4" x2="88.2" y2="430.2"/>
		<line class="st5" x1="88.2" y1="418.4" x2="100" y2="430.2"/>
	</g>
</g>
<g>
	<g>
		<path class="st6" d="M65,482.6h-9.8c-0.3,0-0.6-0.3-0.6-0.6v-6.5c0-0.3,0.3-0.6,0.6-0.6H65c0.3,0,0.6,0.3,0.6,0.6v6.5
			C65.6,482.3,65.4,482.6,65,482.6z"/>
		<polyline class="st6" points="54.9,477.7 60.3,478.6 65.6,477.7 		"/>
		<polyline class="st6" points="58.2,474.9 58.2,472.6 62.1,472.6 62.1,474.9 		"/>
	</g>
	<ellipse class="st6" cx="46.9" cy="452.7" rx="8.2" ry="8.2"/>
	<path class="st6" d="M58.5,468.2c-2.6-3-6.8-4.4-11.6-4.4c-7.5,0-13.5,3.4-14.1,10.7l-0.1,6.9c0,0,0,1.1,1,1.1H50"/>
	<g>
		<polyline class="st6" points="41.6,464.9 39.2,470.4 46.3,475.5 		"/>
		<polyline class="st6" points="51.7,464.9 54.1,470.4 47,475.5 		"/>
		<path class="st6" d="M41.8,464.6l4.7,11.1c0,0,0.1,0.2,0.3,0l5.1-11.1"/>
	</g>
</g>
<g>
	<g>
		<path class="st5" d="M110.1,482.6h-9.9c-0.3,0-0.6-0.3-0.6-0.6v-6.5c0-0.3,0.3-0.6,0.6-0.6h9.9c0.3,0,0.6,0.3,0.6,0.6v6.5
			C110.6,482.3,110.4,482.6,110.1,482.6z"/>
		<polyline class="st5" points="99.8,477.7 105.2,478.6 110.6,477.7 		"/>
		<polyline class="st5" points="103.2,474.9 103.2,472.6 107.1,472.6 107.1,474.9 		"/>
	</g>
	<ellipse class="st5" cx="91.9" cy="452.7" rx="8.2" ry="8.2"/>
	<path class="st5" d="M103.5,468.2c-2.6-3-6.8-4.4-11.7-4.4c-7.5,0-13.5,3.4-14.1,10.7l-0.1,6.9c0,0,0,1.1,1,1.1H95"/>
	<g>
		<polyline class="st5" points="86.5,464.9 84.1,470.4 91.2,475.5 		"/>
		<polyline class="st5" points="96.6,464.9 99.1,470.4 91.9,475.5 		"/>
		<path class="st5" d="M86.7,464.6l4.7,11.1c0,0,0.1,0.2,0.3,0l5.1-11.1"/>
	</g>
</g>
<g>
	<circle class="st6" cx="49.1" cy="497.3" r="8"/>
	<path class="st6" d="M62.9,525.1l-0.1-6.7c-0.6-7.1-6.5-10.4-13.7-10.4s-13.1,3.3-13.7,10.4l-0.1,6.7c0,0,0,1.1,1,1.1h25.5
		C61.8,526.3,62.9,526.2,62.9,525.1z"/>
	<line class="st6" x1="54" y1="521.3" x2="57" y2="521.3"/>
	<g>
		<polyline class="st6" points="43.5,509.2 41,514.8 48.2,520 		"/>
		<polyline class="st6" points="53.7,509.2 56.2,514.8 49,520 		"/>
		<path class="st6" d="M43.7,508.8l4.8,11.3c0,0,0.1,0.2,0.3,0l5.2-11.3"/>
	</g>
</g>
<g>
	<circle class="st5" cx="94.1" cy="497.3" r="8"/>
	<path class="st5" d="M107.9,525.1l-0.1-6.7c-0.6-7.1-6.5-10.4-13.7-10.4s-13.1,3.3-13.7,10.4l-0.1,6.7c0,0,0,1.1,1,1.1h25.5
		C106.8,526.3,107.9,526.2,107.9,525.1z"/>
	<polyline class="st5" points="88.6,509.2 86.1,514.8 93.4,520 	"/>
	<polyline class="st5" points="98.9,509.2 101.3,514.8 94.1,520 	"/>
	<line class="st5" x1="99" y1="522.8" x2="102" y2="522.8"/>
	<path class="st5" d="M88.8,508.8l4.8,11.3c0,0,0.1,0.2,0.3,0l5.2-11.3"/>
</g>
<g>
	<circle class="st6" cx="49.1" cy="541.6" r="8"/>
	<path class="st6" d="M62.9,569.4l-0.1-6.7c-0.6-7.1-6.5-10.4-13.7-10.4s-13.1,3.3-13.7,10.4l-0.1,6.7c0,0,0,1.1,1,1.1h25.5
		C61.8,570.6,62.9,570.5,62.9,569.4z"/>
	<polyline class="st6" points="46.5,552.8 47.9,555.3 48,555.3 50.2,555.3 50.4,555.3 51.7,552.8 	"/>
	<path class="st6" d="M50.3,555.2l1.4,6.6l-2.5,3.9c0,0-0.1,0.1-0.2,0l-2.5-3.9l1.4-6.6"/>
</g>
<g>
	<circle class="st5" cx="94.1" cy="541.6" r="8"/>
	<path class="st5" d="M107.9,569.4l-0.1-6.7c-0.6-7.1-6.5-10.4-13.7-10.4s-13.1,3.3-13.7,10.4l-0.1,6.7c0,0,0,1.1,1,1.1h25.5
		C106.8,570.6,107.9,570.5,107.9,569.4z"/>
	<polyline class="st5" points="91.5,553.1 92.9,555.8 93,555.8 95.2,555.8 95.4,555.8 96.7,553.2 	"/>
	<path class="st5" d="M95.3,555.2l1.4,6.6l-2.5,3.9c0,0-0.1,0.1-0.2,0l-2.5-3.9l1.4-6.6"/>
</g>
<g>
	<g>
		<circle class="st6" cx="42.3" cy="587.2" r="7"/>
		<path class="st6" d="M54.4,611.6l-0.1-5.8c-0.5-6.2-5.7-9.1-12-9.1c-6.4,0-11.5,2.9-12,9.1l-0.1,5.9c0,0,0,0.9,0.8,0.9h22.4
			C53.4,612.7,54.4,612.6,54.4,611.6z"/>
	</g>
	<g>
		<line class="st6" x1="68.1" y1="595.7" x2="55" y2="595.7"/>
		<line class="st6" x1="61.6" y1="589.2" x2="61.6" y2="602.3"/>
	</g>
</g>
<g>
	<g>
		<circle class="st5" cx="87.3" cy="586.8" r="7"/>
		<path class="st5" d="M99.4,612l-0.1-5.8c-0.5-6.2-5.7-9.1-12-9.1c-6.4,0-11.5,2.9-12,9.1l-0.1,5.9c0,0,0,0.9,0.8,0.9h22.4
			C98.4,613,99.4,612.9,99.4,612z"/>
	</g>
	<g>
		<line class="st5" x1="113.1" y1="596.1" x2="100" y2="596.1"/>
		<line class="st5" x1="106.6" y1="589.5" x2="106.6" y2="602.6"/>
	</g>
</g>
</svg>
