<?xml version="1.0" encoding="utf-8"?>
<!-- Generator: Adobe Illustrator 19.1.0, SVG Export Plug-In . SVG Version: 6.00 Build 0)  -->
<svg version="1.1" id="Camada_1" xmlns="http://www.w3.org/2000/svg" xmlns:xlink="http://www.w3.org/1999/xlink" x="0px" y="0px"
	 viewBox="-292 320.2 26 153.8" style="enable-background:new -292 320.2 26 153.8;" xml:space="preserve">
<style type="text/css">
	.st0{fill:none;stroke:#FFFFFF;stroke-linecap:round;stroke-linejoin:round;}
	.st1{fill:none;stroke:#928ABE;stroke-miterlimit:10;}
</style>
<title>Prancheta 3</title>
<g>
	<line class="st0" x1="-283.5" y1="352.3" x2="-274.2" y2="352.3"/>
	<path class="st0" d="M-272.1,352.3h1.6c0.4,0,0.8,0.3,0.8,0.8l0,0v13.8c0,0.4-0.3,0.8-0.8,0.8h-17c-0.4,0-0.8-0.2-0.8-0.6v-14.2
		c0-0.4,0.4-0.6,0.8-0.6h1.6"/>
	<line class="st0" x1="-288.2" y1="355.9" x2="-269.7" y2="355.9"/>
	<line class="st0" x1="-284.7" y1="350.8" x2="-284.7" y2="353.5"/>
	<line class="st0" x1="-273" y1="350.8" x2="-273" y2="353.5"/>
</g>
<g>
	<polyline class="st0" points="-277.2,396.5 -275.5,400.3 -274.2,397 -270.9,398.2 -272.7,394.5 	"/>
	<ellipse class="st0" cx="-279" cy="386.6" rx="8.3" ry="8.3"/>
	<polyline class="st0" points="-285.4,394.4 -287.1,398.2 -283.8,397 -282.6,400.3 -280.8,396.5 	"/>
</g>
<g>
	<path class="st0" d="M-279.7,321.3l-9,9c-0.4,0.4-0.4,1,0,1.4c0.2,0.2,0.4,0.3,0.7,0.3l0,0c0.6,0,1,0.4,1,1l0,0v9.4
		c0,0.6,0.4,1,1,1h2.6c0.6,0,1-0.4,1-1v-4.1c0-0.6,0.4-1,1-1h4.1c0.6,0,1,0.4,1,1v4.1c0,0.6,0.4,1,1,1h2.6c0.6,0,1-0.4,1-1V333
		c0-0.6,0.4-1,1-1h0.7c0.6,0,1-0.4,1-1c0-0.3-0.1-0.5-0.3-0.7l-9-9C-278.7,320.9-279.3,320.9-279.7,321.3z"/>
</g>
<g>
	<path class="st0" d="M-267.5,419.4c0.1-0.7-0.3-1.3-1-1.5c-0.7-0.2-1.3,0.3-1.5,1c-0.1,0.7,0.3,1.3,1,1.5c0.2,0,0.3,0,0.5,0
		C-268,420.3-267.6,419.9-267.5,419.4z"/>
	<path class="st0" d="M-281.7,406.9c0.1-0.7-0.3-1.3-1-1.5c-0.7-0.2-1.3,0.3-1.5,1c-0.1,0.7,0.3,1.3,1,1.5c0.2,0,0.3,0,0.5,0
		C-282.2,407.8-281.8,407.4-281.7,406.9z"/>
	<path class="st0" d="M-274.2,426.1c0.1-0.7-0.3-1.3-1-1.5c-0.7-0.2-1.3,0.3-1.5,1c-0.1,0.7,0.3,1.3,1,1.5c0.2,0,0.3,0,0.5,0
		C-274.7,427-274.3,426.6-274.2,426.1z"/>
	<path class="st0" d="M-288,418.1c0.1-0.7-0.3-1.3-1-1.5c-0.7-0.1-1.3,0.3-1.5,1c-0.2,0.7,0.3,1.3,1,1.5c0.2,0,0.3,0,0.5,0
		C-288.5,419-288.1,418.6-288,418.1z"/>
	<line class="st0" x1="-288.8" y1="416.6" x2="-283.8" y2="407.4"/>
	<line class="st0" x1="-274.2" y1="425" x2="-269.6" y2="420"/>
	<line class="st0" x1="-282.1" y1="407.4" x2="-276.3" y2="424.6"/>
</g>
<polyline class="st1" points="-273,464.2 -279,470.2 -285,464.2 "/>
<g>
	<path class="st1" d="M-271.5,448.7c0,0-0.1-0.6-0.5-0.9c0,0-2.8-1.6-2.8-6.8c0-3.8-4.3-3.7-4.3-3.7s-4.2,0-4.2,3.7
		c0,5.2-2.8,6.8-2.8,6.8c-0.4,0.3-0.5,0.9-0.5,0.9s0,0.8,0.6,0.8h13.7C-271.5,449.5-271.5,448.7-271.5,448.7z"/>
	<path class="st1" d="M-281.5,451.2c0.3,0.9,1.3,1.9,2.5,1.9c1.2,0,2.2-1,2.5-1.9"/>
</g>
</svg>
