<svg xmlns="http://www.w3.org/2000/svg" viewBox="0 0 137 34"><defs><style>.cls-1{fill:#fff;}</style></defs><title>logo_denode</title><g id="Camada_1" data-name="Camada 1"><g id="_Grupo_" data-name="&lt;Grupo&gt;"><path id="_Caminho_composto_" data-name="&lt;Caminho composto&gt;" class="cls-1" d="M23,4.6V29.18h-5.9V26.86a6.31,6.31,0,0,1-5.3,2.55c-5,0-8.35-3.71-8.35-9.28s3.28-9.08,8.22-9.08a6.61,6.61,0,0,1,5.43,2.55v-9Zm-5.9,15.7c0-2.68-1.56-4.47-3.84-4.47S9.37,17.65,9.37,20.3s1.56,4.47,3.88,4.47S17.09,23,17.09,20.3Z"/><path id="_Caminho_composto_2" data-name="&lt;Caminho composto&gt;" class="cls-1" d="M44.59,21.79H32.13a4,4,0,0,0,4.07,3.15,5.94,5.94,0,0,0,4.21-1.82l3.08,3.08a10.07,10.07,0,0,1-7.82,3.18c-5.86,0-9.47-3.61-9.47-9.08s3.74-9.24,9.34-9.24C41.8,11.06,45,15.27,44.59,21.79Zm-5.7-3.15a3.2,3.2,0,0,0-3.31-3.45c-1.92,0-3.18,1.39-3.58,3.45Z"/><path id="_Caminho_composto_3" data-name="&lt;Caminho composto&gt;" class="cls-1" d="M66,17.88v11.3H60.09V19.57a3,3,0,0,0-3-3.28,3.51,3.51,0,0,0-3.51,3.41v9.47h-5.9V11.26h5.9v2.92A6.58,6.58,0,0,1,59.46,11C63.37,11,66,13.68,66,17.88Z"/><path id="_Caminho_composto_4" data-name="&lt;Caminho composto&gt;" class="cls-1" d="M88.08,20.2c0,5.53-3.91,9.18-9.81,9.18S68.5,25.73,68.5,20.2s3.88-9.14,9.77-9.14S88.08,14.7,88.08,20.2Zm-13.65.07c0,2.68,1.56,4.47,3.84,4.47s3.88-1.79,3.88-4.47-1.56-4.44-3.88-4.44S74.43,17.62,74.43,20.27Z"/><path id="_Caminho_composto_5" data-name="&lt;Caminho composto&gt;" class="cls-1" d="M109.18,4.6V29.18h-5.9V26.86A6.31,6.31,0,0,1,98,29.41c-5,0-8.35-3.71-8.35-9.28s3.28-9.08,8.22-9.08a6.61,6.61,0,0,1,5.43,2.55v-9Zm-5.9,15.7c0-2.68-1.56-4.47-3.84-4.47s-3.88,1.82-3.88,4.47,1.56,4.47,3.88,4.47S103.28,23,103.28,20.3Z"/><path id="_Caminho_composto_6" data-name="&lt;Caminho composto&gt;" class="cls-1" d="M130.78,21.79H118.32a4,4,0,0,0,4.07,3.15,5.94,5.94,0,0,0,4.21-1.82l3.08,3.08a10.07,10.07,0,0,1-7.82,3.18c-5.86,0-9.47-3.61-9.47-9.08s3.74-9.24,9.34-9.24C128,11.06,131.17,15.27,130.78,21.79Zm-5.7-3.15a3.2,3.2,0,0,0-3.31-3.45c-1.92,0-3.18,1.39-3.58,3.45Z"/></g></g></svg>